<?xml version="1.0" encoding="UTF-8"?>
<svg id="_イヤー_1" xmlns="http://www.w3.org/2000/svg" viewBox="0 0 170.78 40.49">
    <defs>
        <style>.cls-1,.cls-2,.cls-3{fill:#fff;}.cls-2{opacity:.9;}.cls-3{opacity:.8;}</style>
    </defs>
    <g>
        <path class="cls-1" d="M20.25,0C9.08,0,0,9.08,0,20.25s9.08,20.25,20.25,20.25,20.25-9.08,20.25-20.25S31.41,0,20.25,0Zm0,38.09c-9.85,0-17.84-7.99-17.84-17.84S10.39,2.4,20.25,2.4s17.84,7.99,17.84,17.84-7.99,17.84-17.84,17.84Z"/>
        <path class="cls-2" d="M23.7,25.6c-.76-.31-1.4-.87-1.83-1.57l-9.34,9.34c.73,.43,1.49,.8,2.29,1.11l8.87-8.87Z"/>
        <path class="cls-3" d="M25.16,18.21c-2.12,0-3.84,1.72-3.84,3.84,0,.72,.2,1.4,.55,1.98,.42,.7,1.06,1.26,1.83,1.57,.45,.18,.94,.29,1.46,.29,2.12,0,3.84-1.72,3.84-3.84s-1.72-3.84-3.84-3.84Zm0,5.27c-.79,0-1.43-.64-1.43-1.43s.64-1.43,1.43-1.43,1.43,.64,1.43,1.43-.64,1.43-1.43,1.43Z"/>
        <path class="cls-2" d="M18.82,16.68L28.22,7.29c-.71-.44-1.47-.82-2.26-1.14l-8.97,8.97c.76,.31,1.4,.87,1.83,1.57Z"/>
        <path class="cls-1" d="M20.25,3.65C11.1,3.65,3.65,11.1,3.65,20.25c0,6.82,4.14,12.69,10.04,15.24,.03,.01,.06,.03,.09,.04,1.99,.85,4.18,1.31,6.47,1.31,9.15,0,16.59-7.44,16.59-16.59S29.4,3.65,20.25,3.65Zm0,31.81c-1.91,0-3.73-.36-5.41-1-.8-.31-1.57-.68-2.29-1.11-4.49-2.65-7.51-7.54-7.51-13.12,0-8.39,6.83-15.22,15.22-15.22,2.02,0,3.95,.4,5.71,1.12,.79,.32,1.54,.7,2.26,1.14,4.35,2.68,7.25,7.49,7.25,12.96,0,8.39-6.83,15.22-15.22,15.22Z"/>
        <path class="cls-3" d="M18.82,16.68c-.42-.7-1.06-1.26-1.83-1.57-.45-.18-.94-.29-1.46-.29-2.12,0-3.84,1.72-3.84,3.84s1.72,3.84,3.84,3.84,3.84-1.72,3.84-3.84c0-.72-.2-1.4-.55-1.98Zm-3.28,3.41c-.79,0-1.43-.64-1.43-1.43s.64-1.43,1.43-1.43,1.43,.64,1.43,1.43-.64,1.43-1.43,1.43Z"/>
    </g>
    <g>
        <polygon class="cls-1" points="48.97 15.37 54.06 15.37 54.06 28.22 56.86 28.22 56.86 15.37 61.95 15.37 61.95 13.04 48.97 13.04 48.97 15.37"/>
        <path class="cls-1" d="M67.88,17.14c-.92,0-1.75,.23-2.49,.68-.29,.18-.57,.39-.82,.63v-.97h-2.66v10.75h2.66v-5.17c0-.76,.16-1.42,.46-1.97,.31-.55,.71-.96,1.21-1.24,.51-.29,1.04-.43,1.63-.43,.32,0,.62,.06,.89,.17l.73,.3v-2.47l-.39-.11c-.39-.11-.81-.16-1.23-.16Z"/>
        <path class="cls-1" d="M78.89,22.85c0,1.06-.25,1.9-.74,2.51-.47,.58-1.17,.86-2.15,.86-1.67,0-2.41-.73-2.41-2.35v-6.39h-2.66v7.01c0,.84,.23,1.59,.68,2.21,.44,.62,1.04,1.09,1.79,1.4,.72,.3,1.51,.46,2.35,.46,.91,0,1.72-.19,2.42-.57,.26-.14,.5-.31,.73-.49v.73h2.66v-10.75h-2.66v5.38Z"/>
        <rect class="cls-1" x="84.45" y="12.12" width="2.66" height="16.1"/>
        <polygon class="cls-1" points="94.59 24.75 91.27 17.47 88.43 17.47 93.22 27.89 91.23 32.37 94 32.37 100.44 17.47 97.78 17.47 94.59 24.75"/>
        <polygon class="cls-1" points="119.2 24.14 116.77 17.47 114.47 17.47 111.95 24.2 109.48 17.47 106.64 17.47 110.69 28.22 113.02 28.22 115.55 21.75 117.9 28.22 120.32 28.22 124.31 17.47 121.65 17.47 119.2 24.14"/>
        <path class="cls-1" d="M134.55,18.22c-.29-.22-.61-.41-.95-.56-.74-.34-1.56-.52-2.44-.52-1.14,0-2.18,.24-3.08,.73-.91,.49-1.63,1.17-2.15,2.03-.51,.86-.77,1.85-.77,2.93s.26,2.1,.79,2.97c.52,.87,1.25,1.55,2.17,2.04,.91,.48,1.95,.72,3.09,.72,.86,0,1.67-.17,2.4-.52,.33-.16,.64-.34,.93-.55v.74h2.66v-10.75h-2.66v.75Zm-.43,2.88c.29,.51,.43,1.1,.43,1.75s-.14,1.24-.43,1.75c-.29,.51-.67,.9-1.18,1.19-.51,.29-1.1,.43-1.77,.43s-1.23-.14-1.73-.43c-.5-.29-.89-.67-1.17-1.19-.29-.51-.43-1.11-.43-1.77s.14-1.23,.43-1.74c.29-.51,.67-.89,1.17-1.18,.5-.28,1.08-.43,1.73-.43s1.26,.14,1.77,.43c.51,.29,.9,.67,1.18,1.19Z"/>
        <rect class="cls-1" x="140.1" y="12.12" width="2.66" height="16.1"/>
        <rect class="cls-1" x="146.17" y="12.12" width="2.66" height="16.1"/>
        <path class="cls-1" d="M160.03,24.69c-.33,.48-.76,.85-1.3,1.12-.55,.27-1.26,.41-2.12,.41-1.03,0-1.81-.29-2.39-.9-.46-.48-.76-1.03-.89-1.66h8.98l.05-.47c.02-.16,.03-.38,.03-.66,0-1.01-.26-1.93-.77-2.75-.51-.82-1.21-1.47-2.09-1.94h0c-.88-.47-1.87-.7-2.95-.7-1.14,0-2.18,.24-3.08,.73-.91,.49-1.63,1.17-2.15,2.04-.51,.87-.77,1.86-.77,2.94s.26,2.08,.79,2.95c.52,.87,1.25,1.55,2.17,2.04,.91,.48,1.96,.72,3.11,.72,1.24,0,2.34-.22,3.26-.66,.93-.44,1.69-1.07,2.26-1.86l.34-.47-2.2-1.29-.28,.4Zm-6.51-3.23c.19-.48,.49-.89,.89-1.24,.56-.49,1.27-.73,2.17-.73s1.66,.21,2.18,.64c.39,.32,.67,.76,.84,1.34h-6.08Z"/>
        <polygon class="cls-1" points="168.22 17.47 168.22 14.26 165.56 14.26 165.56 17.47 163.67 17.47 163.67 19.81 165.56 19.81 165.56 28.22 168.22 28.22 168.22 19.81 170.78 19.81 170.78 17.47 168.22 17.47"/>
    </g>
</svg>