<?xml version="1.0" encoding="UTF-8"?>
<svg id="_イヤー_1" xmlns="http://www.w3.org/2000/svg" viewBox="0 0 121.81 70">
    <defs>
        <style>.cls-1{fill:#0096f4;}.cls-2{fill:#c93285;}.cls-3{fill:#e3348c;}.cls-4{fill:#131516;}</style>
    </defs>
    <path class="cls-1" d="M60.91,0c-11.16,0-20.25,9.08-20.25,20.25s9.08,20.25,20.25,20.25,20.25-9.08,20.25-20.25S72.07,0,60.91,0Zm0,38.09c-9.85,0-17.84-7.99-17.84-17.84S51.05,2.4,60.91,2.4s17.84,7.99,17.84,17.84-7.99,17.84-17.84,17.84Z"/>
    <path class="cls-2" d="M64.36,25.6c-.76-.31-1.4-.87-1.83-1.57l-9.34,9.34c.73,.43,1.49,.8,2.29,1.11l8.87-8.87Z"/>
    <path class="cls-3" d="M65.82,18.21c-2.12,0-3.84,1.72-3.84,3.84,0,.72,.2,1.4,.55,1.98,.42,.7,1.06,1.26,1.83,1.57,.45,.18,.94,.29,1.46,.29,2.12,0,3.84-1.72,3.84-3.84s-1.72-3.84-3.84-3.84Zm0,5.27c-.79,0-1.43-.64-1.43-1.43s.64-1.43,1.43-1.43,1.43,.64,1.43,1.43-.64,1.43-1.43,1.43Z"/>
    <path class="cls-2" d="M59.48,16.68l9.39-9.39c-.71-.44-1.47-.82-2.26-1.14l-8.97,8.97c.76,.31,1.4,.87,1.83,1.57Z"/>
    <path class="cls-1" d="M60.91,3.65c-9.15,0-16.59,7.44-16.59,16.59,0,6.82,4.14,12.69,10.04,15.24,.03,.01,.06,.03,.09,.04,1.99,.85,4.18,1.31,6.47,1.31,9.15,0,16.59-7.44,16.59-16.59S70.06,3.65,60.91,3.65Zm0,31.81c-1.91,0-3.73-.36-5.41-1-.8-.31-1.57-.68-2.29-1.11-4.49-2.65-7.51-7.54-7.51-13.12,0-8.39,6.83-15.22,15.22-15.22,2.02,0,3.95,.4,5.71,1.12,.79,.32,1.54,.7,2.26,1.14,4.35,2.68,7.25,7.49,7.25,12.96,0,8.39-6.83,15.22-15.22,15.22Z"/>
    <path class="cls-3" d="M59.48,16.68c-.42-.7-1.06-1.26-1.83-1.57-.45-.18-.94-.29-1.46-.29-2.12,0-3.84,1.72-3.84,3.84s1.72,3.84,3.84,3.84,3.84-1.72,3.84-3.84c0-.72-.2-1.4-.55-1.98Zm-3.28,3.41c-.79,0-1.43-.64-1.43-1.43s.64-1.43,1.43-1.43,1.43,.64,1.43,1.43-.64,1.43-1.43,1.43Z"/>
    <g>
        <polygon class="cls-4" points="0 53 5.09 53 5.09 65.85 7.89 65.85 7.89 53 12.98 53 12.98 50.67 0 50.67 0 53"/>
        <path class="cls-4" d="M18.91,54.77c-.92,0-1.75,.23-2.49,.68-.29,.18-.57,.39-.82,.63v-.97h-2.66v10.75h2.66v-5.17c0-.76,.16-1.42,.46-1.97,.31-.55,.71-.96,1.21-1.24,.51-.29,1.04-.43,1.63-.43,.32,0,.62,.06,.89,.17l.73,.3v-2.47l-.39-.11c-.39-.11-.81-.16-1.23-.16Z"/>
        <path class="cls-4" d="M29.93,60.48c0,1.06-.25,1.9-.74,2.51-.47,.58-1.17,.86-2.15,.86-1.67,0-2.41-.73-2.41-2.35v-6.39h-2.66v7.01c0,.84,.23,1.59,.68,2.21,.44,.62,1.04,1.09,1.79,1.4,.72,.3,1.51,.46,2.35,.46,.91,0,1.72-.19,2.42-.57,.26-.14,.5-.31,.73-.49v.73h2.66v-10.75h-2.66v5.38Z"/>
        <rect class="cls-4" x="35.48" y="49.75" width="2.66" height="16.1"/>
        <polygon class="cls-4" points="45.62 62.38 42.3 55.1 39.46 55.1 44.25 65.52 42.27 70 45.03 70 51.47 55.1 48.81 55.1 45.62 62.38"/>
        <polygon class="cls-4" points="70.23 61.77 67.8 55.1 65.51 55.1 62.99 61.83 60.51 55.1 57.68 55.1 61.72 65.85 64.05 65.85 66.59 59.38 68.94 65.85 71.35 65.85 75.34 55.1 72.68 55.1 70.23 61.77"/>
        <path class="cls-4" d="M85.58,55.85c-.29-.22-.61-.41-.95-.56-.74-.34-1.56-.52-2.44-.52-1.14,0-2.18,.24-3.08,.73-.91,.49-1.63,1.17-2.15,2.03-.51,.86-.77,1.85-.77,2.93s.26,2.1,.79,2.97c.52,.87,1.25,1.55,2.17,2.04,.91,.48,1.95,.72,3.09,.72,.86,0,1.67-.17,2.4-.52,.33-.16,.64-.34,.93-.55v.74h2.66v-10.75h-2.66v.75Zm-.43,2.88c.29,.51,.43,1.1,.43,1.75s-.14,1.24-.43,1.75c-.29,.51-.67,.9-1.18,1.19-.51,.29-1.1,.43-1.77,.43s-1.23-.14-1.73-.43c-.5-.29-.89-.67-1.17-1.19-.29-.51-.43-1.11-.43-1.77s.14-1.23,.43-1.74c.29-.51,.67-.89,1.17-1.18,.5-.28,1.08-.43,1.73-.43s1.26,.14,1.77,.43c.51,.29,.9,.67,1.18,1.19Z"/>
        <rect class="cls-4" x="91.13" y="49.75" width="2.66" height="16.1"/>
        <rect class="cls-4" x="97.2" y="49.75" width="2.66" height="16.1"/>
        <path class="cls-4" d="M111.07,62.32c-.33,.48-.76,.85-1.3,1.12-.55,.27-1.26,.41-2.12,.41-1.03,0-1.81-.29-2.39-.9-.46-.48-.76-1.03-.89-1.66h8.98l.05-.47c.02-.16,.03-.38,.03-.66,0-1.01-.26-1.93-.77-2.75-.51-.82-1.21-1.47-2.09-1.94h0c-.88-.47-1.87-.7-2.95-.7-1.14,0-2.18,.24-3.08,.73-.91,.49-1.63,1.17-2.15,2.04-.51,.87-.77,1.86-.77,2.94s.26,2.08,.79,2.95c.52,.87,1.25,1.55,2.17,2.04,.91,.48,1.96,.72,3.11,.72,1.24,0,2.34-.22,3.26-.66,.93-.44,1.69-1.07,2.26-1.86l.34-.47-2.2-1.29-.28,.4Zm-6.51-3.23c.19-.48,.49-.89,.89-1.24,.56-.49,1.27-.73,2.17-.73s1.66,.21,2.18,.64c.39,.32,.67,.76,.84,1.34h-6.08Z"/>
        <polygon class="cls-4" points="119.25 55.1 119.25 51.89 116.59 51.89 116.59 55.1 114.7 55.1 114.7 57.44 116.59 57.44 116.59 65.85 119.25 65.85 119.25 57.44 121.81 57.44 121.81 55.1 119.25 55.1"/>
    </g>
</svg>