<svg xmlns="http://www.w3.org/2000/svg" width="12" height="12" viewBox="0 0 12 12">
    <path id="icon_language" d="M8.994,3A6,6,0,1,0,15,9,6,6,0,0,0,8.994,3Zm4.158,3.6h-1.77a9.39,9.39,0,0,0-.828-2.136A4.818,4.818,0,0,1,13.152,6.6ZM9,4.224A8.452,8.452,0,0,1,10.146,6.6H7.854A8.452,8.452,0,0,1,9,4.224ZM4.356,10.2a4.693,4.693,0,0,1,0-2.4H6.384A9.909,9.909,0,0,0,6.3,9a9.909,9.909,0,0,0,.084,1.2Zm.492,1.2h1.77a9.389,9.389,0,0,0,.828,2.136A4.792,4.792,0,0,1,4.848,11.4Zm1.77-4.8H4.848a4.792,4.792,0,0,1,2.6-2.136A9.389,9.389,0,0,0,6.618,6.6ZM9,13.776A8.452,8.452,0,0,1,7.854,11.4h2.292A8.452,8.452,0,0,1,9,13.776ZM10.4,10.2H7.6A8.828,8.828,0,0,1,7.5,9a8.751,8.751,0,0,1,.1-1.2H10.4A8.751,8.751,0,0,1,10.5,9,8.828,8.828,0,0,1,10.4,10.2Zm.15,3.336a9.389,9.389,0,0,0,.828-2.136h1.77a4.818,4.818,0,0,1-2.6,2.136ZM11.616,10.2A9.909,9.909,0,0,0,11.7,9a9.909,9.909,0,0,0-.084-1.2h2.028a4.693,4.693,0,0,1,0,2.4Z" transform="translate(-3 -3)" fill="#FFF"/>
</svg>