<svg xmlns="http://www.w3.org/2000/svg" width="8.71" height="8.71" viewBox="0 0 8.71 8.71">
    <g id="icon_send" transform="translate(-9.75 -9.75)">
        <path id="パス_5" data-name="パス 5" d="M10.5,18.46a.75.75,0,0,1-.53-1.28l7.21-7.21A.75.75,0,0,1,18.24,11.03l-7.21,7.21A.748.748,0,0,1,10.5,18.46Z" fill="#fff"/>
        <path id="パス_6" data-name="パス 6" d="M17.71,18.46a.75.75,0,0,1-.75-.75V11.25H10.5a.75.75,0,0,1,0-1.5h7.21a.75.75,0,0,1,.75.75v7.21A.75.75,0,0,1,17.71,18.46Z" fill="#fff"/>
    </g>
</svg>