<svg xmlns="http://www.w3.org/2000/svg" width="60" height="60" viewBox="0 0 60 60">
  <g id="icon_confirm" transform="translate(-141 -315)">
    <path id="パス_47" data-name="パス 47" d="M30,0A30,30,0,1,1,0,30,30,30,0,0,1,30,0Z" transform="translate(141 315)" fill="#81d056"/>
    <path id="Icon_feather-check" data-name="Icon feather-check" d="M14.764,27.662a1.893,1.893,0,0,1-1.3-.509L5.789,19.909a1.67,1.67,0,0,1,0-2.458,1.92,1.92,0,0,1,2.6,0l6.371,6.014L30.342,8.759a1.92,1.92,0,0,1,2.6,0,1.67,1.67,0,0,1,0,2.458L16.066,27.153A1.893,1.893,0,0,1,14.764,27.662Z" transform="translate(151.632 328.809)" fill="#fff"/>
  </g>
</svg>
