<svg xmlns="http://www.w3.org/2000/svg" width="7" height="9.798" viewBox="0 0 7 9.798">
    <path id="icon_bitcoin" d="M13.628,7.657A1.311,1.311,0,0,0,13.014,7a2.147,2.147,0,0,0-.556-.219,1.361,1.361,0,0,0,.356-.241,1.233,1.233,0,0,0,.341-.51,1.686,1.686,0,0,0,.077-.617,1.834,1.834,0,0,0-.289-.98,1.8,1.8,0,0,0-.822-.591,3.088,3.088,0,0,0-1-.195V2.25h-.875v1.4h-.7V2.25h-.9v1.4H6.75V4.7h.61a.987.987,0,0,1,.385.05.289.289,0,0,1,.142.131,1.052,1.052,0,0,1,.042.383V9.052a1.054,1.054,0,0,1-.042.381c-.028.057-.044.107-.112.138s-.07.028-.258.028H6.94l-.19,1.05h1.9v1.4h.9v-1.4h.7v1.4h.875V10.64a4.277,4.277,0,0,0,1.3-.225,2.133,2.133,0,0,0,.978-.689,2.133,2.133,0,0,0,.346-1.12A2.464,2.464,0,0,0,13.628,7.657ZM9.549,4.831h.7V6.449h-.7Zm0,4.637V7.5h.7V9.467Zm1.575-4.551a.766.766,0,0,1,.3.278.777.777,0,0,1,.142.468.724.724,0,0,1-.164.448.7.7,0,0,1-.28.243ZM11.754,9a1.327,1.327,0,0,1-.483.3,1.226,1.226,0,0,1-.147.042V7.532a.891.891,0,0,1,.247.074.983.983,0,0,1,.433.289.958.958,0,0,1,.175.54A.692.692,0,0,1,11.754,9Z" transform="translate(-6.75 -2.25)" fill="#FFF"/>
</svg>