<svg xmlns="http://www.w3.org/2000/svg" width="48" height="48" viewBox="0 0 48 48">
  <g id="icon_circle_bitcoin" transform="translate(1031 66)">
    <path id="パス_27" data-name="パス 27" d="M24,0A24,24,0,1,1,0,24,24,24,0,0,1,24,0Z" transform="translate(-1031 -66)" fill="#fff"/>
    <path id="icon_bitcoin" d="M24.437,16.152a3.371,3.371,0,0,0-1.58-1.693,5.52,5.52,0,0,0-1.428-.562,3.5,3.5,0,0,0,.917-.619,3.17,3.17,0,0,0,.877-1.31,4.337,4.337,0,0,0,.2-1.586,4.717,4.717,0,0,0-.742-2.52,4.637,4.637,0,0,0-2.115-1.518A7.941,7.941,0,0,0,18,5.844V2.25h-2.25v3.6h-1.8V2.25H11.648v3.6H6.75v2.7H8.319a2.538,2.538,0,0,1,.99.129.744.744,0,0,1,.366.337A2.705,2.705,0,0,1,9.781,10v9.741a2.709,2.709,0,0,1-.107.979c-.073.146-.112.276-.287.354s-.18.073-.664.073H7.239l-.489,2.7h4.893v3.6h2.306v-3.6h1.8v3.6H18V23.824a11,11,0,0,0,3.341-.579,5.486,5.486,0,0,0,2.514-1.772,5.484,5.484,0,0,0,.889-2.879A6.337,6.337,0,0,0,24.437,16.152ZM13.949,8.886h1.8v4.162h-1.8Zm0,11.923V15.748h1.8v5.062ZM18,9.106a1.97,1.97,0,0,1,.776.714,2,2,0,0,1,.366,1.2,1.861,1.861,0,0,1-.422,1.153A1.809,1.809,0,0,1,18,12.8Zm1.62,10.5a3.412,3.412,0,0,1-1.243.776,3.153,3.153,0,0,1-.377.107V15.832a2.291,2.291,0,0,1,.636.191,2.528,2.528,0,0,1,1.114.742,2.464,2.464,0,0,1,.45,1.389A1.779,1.779,0,0,1,19.618,19.606Z" transform="translate(-1022.75 -56.75)" fill="#333"/>
  </g>
</svg>
