<svg xmlns="http://www.w3.org/2000/svg" width="10" height="10" viewBox="0 0 10 10">
  <g id="icon_copy" transform="translate(-213.5 -42.5)">
    <g id="Icon_feather-copy" data-name="Icon feather-copy" transform="translate(214 43)">
      <path id="パス_3" data-name="パス 3" d="M14.479,13h4.406a1.481,1.481,0,0,1,1.479,1.479v4.406a1.481,1.481,0,0,1-1.479,1.479H14.479A1.481,1.481,0,0,1,13,18.885V14.479A1.481,1.481,0,0,1,14.479,13Zm4.406,6.364a.48.48,0,0,0,.479-.479V14.479A.48.48,0,0,0,18.885,14H14.479a.48.48,0,0,0-.479.479v4.406a.48.48,0,0,0,.479.479Z" transform="translate(-10.864 -10.864)" fill="#333"/>
      <path id="パス_4" data-name="パス 4" d="M4.469,9.864H3.979A1.481,1.481,0,0,1,2.5,8.385V3.979A1.481,1.481,0,0,1,3.979,2.5H8.385A1.481,1.481,0,0,1,9.864,3.979v.489a.5.5,0,0,1-1,0V3.979A.48.48,0,0,0,8.385,3.5H3.979a.48.48,0,0,0-.479.479V8.385a.48.48,0,0,0,.479.479h.489a.5.5,0,0,1,0,1Z" transform="translate(-3 -3)" fill="#333"/>
    </g>
  </g>
</svg>
